<svg xmlns="http://www.w3.org/2000/svg" xmlns:xlink="http://www.w3.org/1999/xlink" viewBox="0 0 361.84 160.59"><defs><style>.cls-1{fill:#003b57;}.cls-2{fill:#0f80cc;}.cls-3{fill:url(#linear-gradient);}</style><linearGradient id="linear-gradient" x1="-414.32" y1="993.11" x2="-405.44" y2="993.11" gradientTransform="matrix(0, 11.49, 11.49, 0, -11351.43, 4771.82)" gradientUnits="userSpaceOnUse"><stop offset="0" stop-color="#97d9f6"/><stop offset="0.92" stop-color="#0f80cc"/><stop offset="1" stop-color="#0f80cc"/></linearGradient></defs><title>Asset 1</title><g id="Layer_2" data-name="Layer 2"><g id="svg2985"><path id="SQLite" class="cls-1" d="M137.53,79.22q-7.23,0-11.75,4.28a14.77,14.77,0,0,0-4.53,11.19,18.39,18.39,0,0,0,1.13,6.53,16.5,16.5,0,0,0,3.47,5.5c1.56,1.67,4.69,3.93,9.34,6.81,5.71,3.49,9.46,6.32,11.25,8.53a10.86,10.86,0,0,1,2.69,6.94,9.82,9.82,0,0,1-3.25,7.75,12.73,12.73,0,0,1-8.75,2.91,14.3,14.3,0,0,1-14.37-14.72H121v16.16h1.78c.54-1.53,1.3-2.31,2.28-2.31a14.68,14.68,0,0,1,3.31.94,32.29,32.29,0,0,0,10.38,2.22,17,17,0,0,0,17-17,15.46,15.46,0,0,0-3.28-9.69q-3.26-4.23-12.72-9.87-8.15-4.9-10.59-8a10.87,10.87,0,0,1-2.47-6.87,8.06,8.06,0,0,1,3-6.53,11.79,11.79,0,0,1,7.78-2.44,13,13,0,0,1,9.06,3.25,13.64,13.64,0,0,1,4.19,9.06h1.78v-14h-1.66a4.23,4.23,0,0,1-.56,1.38,1.22,1.22,0,0,1-1,.31,12,12,0,0,1-3.06-.72A27.3,27.3,0,0,0,137.53,79.22Zm58.22,0a31.56,31.56,0,0,0-16,4.16A31.51,31.51,0,0,0,164,110.5a29.92,29.92,0,0,0,7.34,19.87A30.78,30.78,0,0,0,189,141.19q2.34,1.22,6.72,6.31a52.91,52.91,0,0,0,8.38,8.25,25.16,25.16,0,0,0,7.38,3.66,29,29,0,0,0,8.5,1.19,23.8,23.8,0,0,0,9.94-2l-.66-1.62a15.83,15.83,0,0,1-5.41.91,14.22,14.22,0,0,1-7.81-2.56q-3.92-2.57-9.78-9.81a33.66,33.66,0,0,0-3.81-4.34,30.85,30.85,0,0,0,18.41-10.87A30.24,30.24,0,0,0,228,110.5a29.75,29.75,0,0,0-9.34-22.22A31.71,31.71,0,0,0,195.75,79.22Zm36.34,0,.09,1.91c3.91,0,6.1,1.15,6.59,3.47a26.34,26.34,0,0,1,.28,4.56l0,42.16q0,4.72-1.34,6a7.2,7.2,0,0,1-4.44,1.63l-.09,1.91h39l1-9.56h-1.78a7.64,7.64,0,0,1-3.53,5.53c-1.86,1.07-5.15,1.59-9.91,1.59h-3.69q-6.42,0-7.41-4.66a9.73,9.73,0,0,1-.19-2l.16-42.63c0-3.14.4-5.25,1.22-6.28s2.33-1.6,4.5-1.75l-.09-1.91H232.09Zm-35.72,2.31a19.75,19.75,0,0,1,16.22,7.88q6.27,7.9,6.25,21.63,0,13-6.31,20.81a20.49,20.49,0,0,1-16.78,7.81,19.62,19.62,0,0,1-16.28-8.06q-6.24-8.08-6.22-21,0-13.25,6.28-21.19T196.38,81.53Zm89.69,9.06a2.72,2.72,0,0,0-2.22,1,2.62,2.62,0,0,0-.53,2.38,4.18,4.18,0,0,0,1.53,2.41,4.1,4.1,0,0,0,2.66,1,2.49,2.49,0,0,0,2.13-1,2.89,2.89,0,0,0,.47-2.41,4.1,4.1,0,0,0-1.47-2.37A3.94,3.94,0,0,0,286.06,90.59Zm25.72,6.47q-2.42,9.33-10.5,10.12l.06,1.78h6.28L307.5,130a44.54,44.54,0,0,0,.38,7.22c.62,2.92,2.53,4.41,5.72,4.41q6.93,0,14.53-8.44l-1.53-1.31q-5.49,5.56-9.72,5.56c-1.74,0-2.81-1-3.22-3a7.55,7.55,0,0,1-.16-1.69l.06-23.84h9.59l-.09-2.84h-9.47V97.06h-1.81ZM348.88,105q-8,0-13.12,7.78A22.1,22.1,0,0,0,332.66,130a14.87,14.87,0,0,0,4.72,8.59,13.44,13.44,0,0,0,9,3c3.36,0,8-.85,10-2.56s3.79-4.48,5.47-8.28l-1.34-1.41a14.55,14.55,0,0,1-12.16,7.41c-5.6,0-9-3.07-10.31-9.19a22.35,22.35,0,0,1-.37-2.5q10-1.58,15.13-5.62c3.41-2.7,6.83-5.57,6.19-8.59a7,7,0,0,0-2.75-4.28C354.76,105.56,351,105,348.88,105Zm-58.66.22-11.56,2.66v2.06l4-.5a3.1,3.1,0,0,1,3.44,2.63,14.08,14.08,0,0,1,.22,2.44l-.12,18.91c0,2.62-.32,4.14-.91,4.59s-2.14.69-4.66.69l-.06,1.78h18.34l0-1.78c-2.55,0-4.2-.2-4.94-.59a3,3,0,0,1-1.44-2.19,23.17,23.17,0,0,1-.25-4l.06-26.69h-2.09Zm55.72,3.5a5.29,5.29,0,0,1,3.28,1.28,5,5,0,0,1,1.94,2.81c1,5-3.41,8.5-13.44,10.44a17.7,17.7,0,0,1,2-10C341.3,110.25,343.39,108.72,345.94,108.72Z"/><path id="solid-background" class="cls-2" d="M111.63,7H12.13A12.16,12.16,0,0,0,0,19.16V128.9A12.16,12.16,0,0,0,12.13,141H77.66C76.92,108.41,88.05,45.13,111.63,7Z"/><path id="gradient-background" class="cls-3" d="M108,10.57H12.13a8.6,8.6,0,0,0-8.59,8.59V120.89c21.72-8.33,54.31-15.53,76.85-15.2C84.92,82,98.23,35.6,108,10.57Z"/><path id="feather" class="cls-1" d="M134.84,3.44C128-2.63,119.78-.19,111.63,7c-1.21,1.07-2.42,2.26-3.61,3.54C94.09,25.35,81.15,52.73,77.14,73.63A57.64,57.64,0,0,1,80.73,84c.21.79.39,1.54.54,2.17.35,1.5.54,2.47.54,2.47s-.12-.47-.64-2l-.33-1c-.06-.15-.13-.33-.21-.53-.91-2.11-3.42-6.57-4.53-8.51-.95,2.79-1.78,5.4-2.48,7.76,3.19,5.84,5.14,15.86,5.14,15.86s-.17-.65-1-2.91a107.82,107.82,0,0,0-5.1-9.67c-1.44,5.31-2,8.89-1.49,9.77A34,34,0,0,1,74,105.27c1.89,7.27,3.2,16.12,3.2,16.12s0,.59.11,1.49A148.08,148.08,0,0,0,77.66,141c.63,7.57,1.81,14.08,3.31,17.56l1-.56c-2.21-6.86-3.1-15.85-2.71-26.21.59-15.85,4.24-35,11-54.87,11.38-30.07,27.18-54.19,41.63-65.71-13.17,11.9-31,50.41-36.34,64.67a258.58,258.58,0,0,0-12.76,45.31c4.4-13.46,18.64-19.25,18.64-19.25s7-8.61,15.15-20.92c-4.89,1.11-12.92,3-15.6,4.15-4,1.66-5,2.23-5,2.23s12.85-7.82,23.87-11.37c15.16-23.87,31.67-57.79,15-72.63"/></g></g></svg>