<svg xmlns="http://www.w3.org/2000/svg" viewBox="0 0 361.84 160.59" width="361.84" height="160.59"><defs><style>.cls-1{fill:#fff;}</style></defs><title>Asset 2</title><g id="Layer_2" data-name="Layer 2"><g id="svg2985"><path class="cls-1" d="M351.16,112.81a5,5,0,0,0-1.94-2.81,5.28,5.28,0,0,0-3.28-1.28c-2.55,0-4.64,1.53-6.25,4.53a17.7,17.7,0,0,0-2,10C347.75,121.31,352.2,117.84,351.16,112.81Z"/><path class="cls-1" d="M212.53,131.84q6.32-7.82,6.31-20.81,0-13.71-6.25-21.63a19.75,19.75,0,0,0-16.22-7.87q-10.55,0-16.84,7.91t-6.28,21.19q0,12.89,6.22,21a19.62,19.62,0,0,0,16.28,8.06A20.49,20.49,0,0,0,212.53,131.84Z"/><path class="cls-1" d="M293.94,138.09a3,3,0,0,1-1.44-2.19,23.17,23.17,0,0,1-.25-4l.06-26.69h-2.09l-11.56,2.66v2.06l4-.5a3.1,3.1,0,0,1,3.44,2.63,14.08,14.08,0,0,1,.22,2.44l-.12,18.91c0,2.62-.32,4.14-.91,4.59s-2.14.69-4.66.69l-.06,1.78h18.34l0-1.78C296.33,138.69,294.67,138.49,293.94,138.09Z"/><path class="cls-1" d="M139.72,105.38q-8.15-4.9-10.59-8a10.87,10.87,0,0,1-2.47-6.87,8.06,8.06,0,0,1,3-6.53,11.79,11.79,0,0,1,7.78-2.44,13,13,0,0,1,9.06,3.25,13.64,13.64,0,0,1,4.19,9.06h1.78v-14h-1.66a4.23,4.23,0,0,1-.56,1.38,1.22,1.22,0,0,1-1,.31,12,12,0,0,1-3.06-.72,27.3,27.3,0,0,0-8.66-1.59q-7.23,0-11.75,4.28a14.77,14.77,0,0,0-4.53,11.19,18.4,18.4,0,0,0,1.13,6.53,16.5,16.5,0,0,0,3.47,5.5c1.56,1.67,4.69,3.93,9.34,6.81,5.72,3.49,9.46,6.32,11.25,8.53a10.86,10.86,0,0,1,2.69,6.94,9.82,9.82,0,0,1-3.25,7.75,12.73,12.73,0,0,1-8.75,2.91,14.3,14.3,0,0,1-14.37-14.72H121v16.16h1.78c.54-1.53,1.3-2.31,2.28-2.31a14.68,14.68,0,0,1,3.31.94,32.29,32.29,0,0,0,10.38,2.22,17,17,0,0,0,17-17,15.46,15.46,0,0,0-3.28-9.69Q149.18,111,139.72,105.38Z"/><path class="cls-1" d="M223.84,157.91a14.22,14.22,0,0,1-7.81-2.56q-3.92-2.57-9.78-9.81a33.66,33.66,0,0,0-3.81-4.34,30.85,30.85,0,0,0,18.41-10.87A30.24,30.24,0,0,0,228,110.5a29.75,29.75,0,0,0-9.34-22.22,33.34,33.34,0,0,0-39-4.91A31.51,31.51,0,0,0,164,110.5a29.92,29.92,0,0,0,7.34,19.87A30.78,30.78,0,0,0,189,141.19q2.34,1.22,6.72,6.31a52.91,52.91,0,0,0,8.38,8.25,25.16,25.16,0,0,0,7.38,3.66,29,29,0,0,0,8.5,1.19,23.8,23.8,0,0,0,9.94-2l-.66-1.62A15.83,15.83,0,0,1,223.84,157.91Zm-28.09-18.25a19.62,19.62,0,0,1-16.28-8.06q-6.24-8.08-6.22-21,0-13.25,6.28-21.19t16.84-7.91a19.75,19.75,0,0,1,16.22,7.88q6.27,7.9,6.25,21.63,0,13-6.31,20.81A20.49,20.49,0,0,1,195.75,139.66Z"/><path class="cls-1" d="M267.84,136.84c-1.86,1.07-5.15,1.59-9.91,1.59h-3.69q-6.42,0-7.41-4.66a9.73,9.73,0,0,1-.19-2l.16-42.62c0-3.14.4-5.25,1.22-6.28s2.33-1.6,4.5-1.75l-.09-1.91H232.09l.09,1.91c3.91,0,6.1,1.15,6.59,3.47a26.33,26.33,0,0,1,.28,4.56l0,42.16q0,4.72-1.34,6a7.2,7.2,0,0,1-4.44,1.63l-.09,1.91h39l1-9.56h-1.78A7.64,7.64,0,0,1,267.84,136.84Z"/><path class="cls-1" d="M360.5,129.41a14.55,14.55,0,0,1-12.16,7.41c-5.6,0-9-3.07-10.31-9.19a22.35,22.35,0,0,1-.37-2.5q10-1.58,15.13-5.62c3.41-2.7,6.83-5.57,6.19-8.59a7,7,0,0,0-2.75-4.28c-1.45-1.07-5.23-1.62-7.34-1.62q-8,0-13.12,7.78A22.1,22.1,0,0,0,332.66,130a14.87,14.87,0,0,0,4.72,8.59,13.44,13.44,0,0,0,9,3c3.36,0,8-.85,10-2.56s3.79-4.48,5.47-8.28Zm-20.81-16.16c1.61-3,3.7-4.53,6.25-4.53a5.28,5.28,0,0,1,3.28,1.28,5,5,0,0,1,1.94,2.81c1,5-3.41,8.5-13.44,10.44A17.7,17.7,0,0,1,339.69,113.25Z"/><path class="cls-1" d="M316.88,137.47c-1.74,0-2.81-1-3.22-3a7.55,7.55,0,0,1-.16-1.69l.06-23.84h9.59l-.09-2.84h-9.47V97.06h-1.81q-2.42,9.33-10.5,10.13l.06,1.78h6.28L307.5,130a44.54,44.54,0,0,0,.38,7.22c.62,2.92,2.53,4.41,5.72,4.41q6.93,0,14.53-8.44l-1.53-1.31Q321.11,137.46,316.88,137.47Z"/><path class="cls-1" d="M284.84,96.34a4.1,4.1,0,0,0,2.66,1,2.49,2.49,0,0,0,2.13-1,2.89,2.89,0,0,0,.47-2.41,4.1,4.1,0,0,0-1.47-2.37,3.94,3.94,0,0,0-2.56-1,2.72,2.72,0,0,0-2.22,1,2.62,2.62,0,0,0-.53,2.38A4.18,4.18,0,0,0,284.84,96.34Z"/><path class="cls-1" d="M134.84,3.44h0C128-2.63,119.78-.19,111.63,7H12.13A12.16,12.16,0,0,0,0,19.16V128.9A12.16,12.16,0,0,0,12.13,141H77.66c.63,7.57,1.8,14.08,3.31,17.56l1-.56c-2.21-6.86-3.1-15.85-2.71-26.21.59-15.85,4.24-35,11-54.87,11.38-30.07,27.18-54.19,41.63-65.71-13.17,11.9-31,50.41-36.34,64.67a258.58,258.58,0,0,0-12.76,45.31c4.4-13.46,18.64-19.25,18.64-19.25s7-8.61,15.15-20.92c-4.89,1.12-12.92,3-15.6,4.15-4,1.66-5,2.23-5,2.23s12.85-7.82,23.87-11.37C135,52.2,151.47,18.28,134.84,3.44Z"/></g></g></svg>